:SAMPLES-PER-SECOND 30
:FULLY-SPECIFIED
:DEGREES
117
root  4.86836 36.8835 -33.2629 13.9392 -65.4805 -18.8593
RightUpLeg  -2.97508 -11.5895 -5.28646
RightLeg  35.3249 2.42585 1.61192
RightFoot  -24.8438 1.6581 15.2063
RightToes  -5.82094e-011 -1.98785e-016 -5.10186e-018
Spine  20.2359 -1.03075 3.47595
Spine1  4.77764 -1.85341 7.10249
HEad  -29.5979 44.686 -29.2795
LeftShoulder1  2.34286 -3.58887 -26.9136
LeftArm  -10.8362 18.5512 -47.982
LeftForeArm  -153.193 -75.1416 -149.339
LeftHand  -0.738471 -1.44317 12.7518
RightShoulder  3.44834 6.02636 30.2586
RightArm  4.42988 -16.6927 30.6059
RightForeArm  16.9284 32.0807 6.10799
RightHand  -2.30378 6.43016 -22.6874
LeftUpLeg  -23.6819 12.1102 17.869
LeftLeg  44.2775 -0.22486 0.197063
LeftFoot  -12.1971 -0.00279427 -10.0165
LeftToes  -8.4584e-011 5.90861e-011 8.40072e-012
118
root  5.20362 36.6469 -34.0613 9.90373 -66.0802 -15.8686
RightUpLeg  -3.88593 -10.1 -5.48668
RightLeg  38.0701 1.48891 0.983535
RightFoot  -27.2307 1.96706 15.3413
RightToes  -5.82094e-011 -1.98785e-016 -5.10186e-018
Spine  21.8326 -0.969231 3.86068
Spine1  5.31988 -1.04689 4.63332
HEad  -30.9011 43.2402 -28.565
LeftShoulder1  2.37983 -3.78808 -26.5206
LeftArm  -11.5668 17.9768 -47.6584
LeftForeArm  -157 -77.418 -143.076
LeftHand  -0.649652 0.331017 14.8857
RightShoulder  3.83244 6.66191 31.8192
RightArm  1.15078 -15.3001 32.5546
RightForeArm  13.7376 30.2855 5.84488
RightHand  -3.19139 6.34837 -30.7547
LeftUpLeg  -23.0039 12.4923 17.448
LeftLeg  43.7182 -0.067048 0.340111
LeftFoot  -11.7396 0.0357788 -9.62975
LeftToes  -8.4584e-011 5.90861e-011 8.40072e-012
119
root  5.36657 37.1009 -34.5522 5.50027 -65.5885 -12.1061
RightUpLeg  -2.34257 -9.90321 -6.17798
RightLeg  35.8979 0.331621 0.0196176
RightFoot  -25.6465 1.67915 14.7083
RightToes  -5.82094e-011 -1.98785e-016 -5.10186e-018
Spine  21.5589 -1.33547 4.30195
Spine1  7.05066 -0.760007 2.13203
HEad  -30.538 42.6633 -27.7346
LeftShoulder1  2.46408 -4.07351 -26.4016
LeftArm  -11.6565 19.6492 -48.0852
LeftForeArm  -164.397 -79.2499 -134.916
LeftHand  -0.66178 0.558726 15.9114
RightShoulder  3.91168 6.89079 31.7383
RightArm  0.629381 -15.7676 36.3209
RightForeArm  8.279 30.6654 6.24936
RightHand  -4.43033 7.97464 -37.6192
LeftUpLeg  -20.2543 11.715 16.1818
LeftLeg  38.5747 0.435388 0.73894
LeftFoot  -9.01116 0.243162 -9.32568
LeftToes  -8.4584e-011 5.90861e-011 8.40072e-012
120
root  5.32896 37.9871 -34.8174 1.34536 -63.2955 -6.95547
RightUpLeg  0.104785 -9.74209 -7.02151
RightLeg  29.7776 -2.31043 -1.63961
RightFoot  -21.8019 1.22566 14.9404
RightToes  -5.82094e-011 -1.98785e-016 -5.10186e-018
Spine  20.4364 -1.13744 2.62626
Spine1  6.29602 -1.21558 2.76258
HEad  -26.0265 42.6044 -24.9628
LeftShoulder1  2.23744 -3.4469 -26.0369
LeftArm  -10.0187 22.3115 -49.6286
LeftForeArm  179.568 -81.3352 -118.285
LeftHand  -0.600007 0.645657 14.6909
RightShoulder  3.71855 6.48248 31.3487
RightArm  1.65505 -18.0407 38.7064
RightForeArm  9.39559 31.5354 6.40244
RightHand  -3.90577 7.91712 -33.3355
LeftUpLeg  -17.6649 9.45133 13.6335
LeftLeg  30.3152 0.99077 0.996981
LeftFoot  -3.73313 0.666483 -9.57625
LeftToes  -8.4584e-011 5.90861e-011 8.40072e-012
121
root  5.18416 38.9245 -34.9678 1.41362 -61.3567 -4.02508
RightUpLeg  0.543445 -8.6022 -6.60839
RightLeg  22.9527 -5.82963 -2.92246
RightFoot  -16.2796 0.550743 15.2706
RightToes  -5.82094e-011 -1.98785e-016 -5.10186e-018
Spine  16.2278 -0.982412 2.61095
Spine1  6.22146 -1.03009 1.60059
HEad  -20.9478 42.5456 -22.3206
LeftShoulder1  1.92786 -2.65916 -25.1161
LeftArm  -7.98646 25.3552 -51.0877
LeftForeArm  156.037 -82.2923 -95.3622
LeftHand  -0.56214 0.416335 13.2287
RightShoulder  3.50218 5.92158 31.2585
RightArm  1.92191 -20.989 39.9492
RightForeArm  17.3947 32.1873 6.10757
RightHand  -3.08156 9.16877 -24.5954
LeftUpLeg  -16.9603 9.70871 11.5216
LeftLeg  21.8614 0.747373 0.678662
LeftFoot  3.07929 1.26336 -10.174
LeftToes  -8.4584e-011 5.90861e-011 8.40072e-012
122
root  5.05005 39.5981 -35.0297 5.2309 -60.629 -3.68954
RightUpLeg  -1.24321 -7.92577 -5.4498
RightLeg  17.5197 -8.86318 -3.35747
RightFoot  -12.1608 0.034058 16.2317
RightToes  -5.82094e-011 -1.98785e-016 -5.10186e-018
Spine  9.28821 -0.410767 4.01074
Spine1  7.65688 -0.210452 0.437713
HEad  -16.8315 41.8113 -20.0583
LeftShoulder1  1.75017 -2.15284 -24.7225
LeftArm  -6.53255 27.7875 -51.5254
LeftForeArm  131.37 -81.9223 -72.1583
LeftHand  -0.516281 -0.746059 9.8709
RightShoulder  3.2421 5.45761 30.283
RightArm  2.78128 -23.3084 41.1615
RightForeArm  22.0347 33.5514 6.18413
RightHand  -3.31956 10.3122 -24.4817
LeftUpLeg  -18.0404 12.8598 10.375
LeftLeg  15.7648 2.02256 0.94493
LeftFoot  8.46084 1.7828 -10.4531
LeftToes  -8.4584e-011 5.90861e-011 8.40072e-012
123
root  5.09188 39.8673 -35.1307 5.12424 -60.5165 -2.32893
RightUpLeg  -1.46361 -7.8869 -6.08111
RightLeg  16.3905 -12.3437 -4.36942
RightFoot  -12.4012 0.0647686 17.3668
RightToes  -5.82094e-011 -1.98785e-016 -5.10186e-018
Spine  7.2106 0.086026 4.1658
Spine1  7.58088 0.370395 0.0165754
HEad  -15.3093 41.3948 -19.3257
LeftShoulder1  1.46041 -1.44479 -23.2337
LeftArm  -6.15627 29.9037 -52.5808
LeftForeArm  116.736 -80.9686 -58.763
LeftHand  -0.398496 -1.00128 7.35283
RightShoulder  3.2134 5.48957 29.8226
RightArm  4.34071 -24.1389 41.3842
RightForeArm  21.8606 35.4597 6.69522
RightHand  -3.71213 10.393 -27.1505
LeftUpLeg  -16.7292 12.9906 10.118
LeftLeg  13.1763 5.67129 1.76692
LeftFoot  10.371 2.32131 -12.4198
LeftToes  -8.4584e-011 5.90861e-011 8.40072e-012
